<mxfile host="app.diagrams.net" modified="2024-05-11T15:12:28.137Z" agent="Mozilla/5.0 (X11; Linux x86_64) AppleWebKit/537.36 (KHTML, like Gecko) Chrome/124.0.0.0 Safari/537.36" version="24.2.1" etag="TqqzcGPaA1kvSEXFExT5" type="github">
  <diagram name="Page-1" id="uMMtg5rv5UfHUr9xb3ir">
    <mxGraphModel>
      <root>
        <mxCell id="0" />
        <mxCell id="1" parent="0" />
      </root>
    </mxGraphModel>
  </diagram>
</mxfile>
